<svg width="33" height="32" viewBox="0 0 33 32" fill="none" xmlns="http://www.w3.org/2000/svg">
<circle cx="16.3423" cy="15.9922" r="15.5" stroke="white"/>
<path d="M15.8416 12.6602C15.0902 12.6602 14.3695 12.9587 13.8382 13.49C13.3068 14.0214 13.0083 14.742 13.0083 15.4935C13.0083 16.2449 13.3068 16.9656 13.8382 17.497C14.3695 18.0283 15.0902 18.3268 15.8416 18.3268C16.5931 18.3268 17.3138 18.0283 17.8451 17.497C18.3765 16.9656 18.675 16.2449 18.675 15.4935C18.675 14.742 18.3765 14.0214 17.8451 13.49C17.3138 12.9587 16.5931 12.6602 15.8416 12.6602Z" fill="white"/>
<path fill-rule="evenodd" clip-rule="evenodd" d="M12.4423 6.99219C11.0897 6.99219 9.79248 7.52951 8.83604 8.48594C7.87961 9.44238 7.34229 10.7396 7.34229 12.0922L7.34229 18.8922C7.34229 20.2448 7.87961 21.542 8.83604 22.4984C9.79248 23.4549 11.0897 23.9922 12.4423 23.9922H19.2423C20.5949 23.9922 21.8921 23.4549 22.8485 22.4984C23.805 21.542 24.3423 20.2448 24.3423 18.8922V12.0922C24.3423 10.7396 23.805 9.44238 22.8485 8.48594C21.8921 7.52951 20.5949 6.99219 19.2423 6.99219H12.4423ZM11.8756 15.4922C11.8756 14.4402 12.2935 13.4312 13.0374 12.6873C13.7813 11.9434 14.7903 11.5255 15.8423 11.5255C16.8943 11.5255 17.9032 11.9434 18.6471 12.6873C19.391 13.4312 19.809 14.4402 19.809 15.4922C19.809 16.5442 19.391 17.5532 18.6471 18.297C17.9032 19.0409 16.8943 19.4589 15.8423 19.4589C14.7903 19.4589 13.7813 19.0409 13.0374 18.297C12.2935 17.5532 11.8756 16.5442 11.8756 15.4922ZM19.809 11.5255H20.9423V10.3922H19.809V11.5255Z" fill="white"/>
</svg>
