<svg width="33" height="32" viewBox="0 0 33 32" fill="none" xmlns="http://www.w3.org/2000/svg">
<g clip-path="url(#clip0_34717_11617)">
<circle cx="16.3423" cy="15.9922" r="15.5" stroke="white"/>
<path d="M25.3423 10.6174C24.7166 10.9018 24.0421 11.0887 23.3432 11.1781C24.0583 10.7474 24.6109 10.0648 24.871 9.2441C24.1965 9.65041 23.4489 9.93483 22.6606 10.0974C22.0187 9.3985 21.1167 8.99219 20.0928 8.99219C18.1831 8.99219 16.6229 10.5524 16.6229 12.4783C16.6229 12.7546 16.6554 13.0228 16.7123 13.2747C13.8193 13.1284 11.2433 11.7388 9.52871 9.63416C9.22804 10.1461 9.05739 10.7474 9.05739 11.3813C9.05739 12.5921 9.66686 13.6648 10.6095 14.2742C10.0325 14.2742 9.49621 14.1117 9.02489 13.8679V13.8923C9.02489 15.5825 10.2276 16.9965 11.8203 17.3134C11.3089 17.4534 10.7721 17.4728 10.2519 17.3703C10.4727 18.063 10.9049 18.6692 11.4879 19.1036C12.071 19.5379 12.7755 19.7786 13.5024 19.7919C12.2702 20.7674 10.7428 21.2947 9.17116 21.2871C8.89487 21.2871 8.61858 21.2709 8.34229 21.2384C9.88626 22.2298 11.7228 22.8067 13.6893 22.8067C20.0928 22.8067 23.6114 17.4922 23.6114 12.8846C23.6114 12.7302 23.6114 12.584 23.6033 12.4296C24.2859 11.942 24.871 11.3244 25.3423 10.6174Z" fill="white"/>
</g>
<defs>
<clipPath id="clip0_34717_11617">
<rect width="32" height="32" fill="white" transform="translate(0.342285 -0.0078125)"/>
</clipPath>
</defs>
</svg>
